<mxfile host="app.diagrams.net" modified="2023-11-25T15:19:46.890Z" agent="Mozilla/5.0 (Windows NT 10.0; Win64; x64) AppleWebKit/537.36 (KHTML, like Gecko) Chrome/119.0.0.0 Safari/537.36" etag="h8jxHpScNY-NZkbEjybj" version="22.1.4" type="device">
  <diagram name="Page-1" id="2YBvvXClWsGukQMizWep">
    <mxGraphModel dx="546" dy="303" grid="1" gridSize="10" guides="1" tooltips="1" connect="1" arrows="1" fold="1" page="1" pageScale="1" pageWidth="850" pageHeight="1100" math="0" shadow="0">
      <root>
        <mxCell id="0" />
        <mxCell id="1" parent="0" />
        <mxCell id="lUkT9VOEVtkWLfnZ2vva-1" value="&lt;font face=&quot;Verdana&quot;&gt;User1&lt;/font&gt;" style="shape=umlActor;verticalLabelPosition=bottom;verticalAlign=top;html=1;outlineConnect=0;" parent="1" vertex="1">
          <mxGeometry x="40" y="90" width="30" height="50" as="geometry" />
        </mxCell>
        <mxCell id="lUkT9VOEVtkWLfnZ2vva-3" value="&lt;font style=&quot;font-size: 10px;&quot;&gt;ChatPreview&lt;/font&gt;" style="shape=umlBoundary;whiteSpace=wrap;html=1;" parent="1" vertex="1">
          <mxGeometry x="170" y="90" width="100" height="80" as="geometry" />
        </mxCell>
        <mxCell id="lUkT9VOEVtkWLfnZ2vva-5" value="" style="rounded=0;whiteSpace=wrap;html=1;" parent="1" vertex="1">
          <mxGeometry x="50" y="200" width="10" height="530" as="geometry" />
        </mxCell>
        <mxCell id="lUkT9VOEVtkWLfnZ2vva-6" value="" style="rounded=0;whiteSpace=wrap;html=1;" parent="1" vertex="1">
          <mxGeometry x="220" y="200" width="10" height="100" as="geometry" />
        </mxCell>
        <mxCell id="lUkT9VOEVtkWLfnZ2vva-8" value="&lt;font face=&quot;Verdana&quot;&gt;1.1:&amp;lt;&amp;lt;create&amp;gt;&amp;gt;&lt;/font&gt;" style="html=1;verticalAlign=bottom;endArrow=block;curved=0;rounded=0;" parent="1" edge="1">
          <mxGeometry width="80" relative="1" as="geometry">
            <mxPoint x="240" y="290" as="sourcePoint" />
            <mxPoint x="350" y="290" as="targetPoint" />
          </mxGeometry>
        </mxCell>
        <mxCell id="lUkT9VOEVtkWLfnZ2vva-9" value="&lt;font face=&quot;Verdana&quot;&gt;1.click()&lt;/font&gt;" style="html=1;verticalAlign=bottom;endArrow=block;curved=0;rounded=0;" parent="1" edge="1">
          <mxGeometry width="80" relative="1" as="geometry">
            <mxPoint x="70" y="210" as="sourcePoint" />
            <mxPoint x="210" y="210" as="targetPoint" />
            <mxPoint as="offset" />
          </mxGeometry>
        </mxCell>
        <mxCell id="lUkT9VOEVtkWLfnZ2vva-10" value="&lt;font style=&quot;font-size: 10px;&quot;&gt;ChatControl&lt;/font&gt;" style="ellipse;shape=umlControl;whiteSpace=wrap;html=1;" parent="1" vertex="1">
          <mxGeometry x="322.5" y="80" width="85" height="90" as="geometry" />
        </mxCell>
        <mxCell id="lUkT9VOEVtkWLfnZ2vva-12" value="" style="rounded=0;whiteSpace=wrap;html=1;" parent="1" vertex="1">
          <mxGeometry x="360" y="290" width="10" height="230" as="geometry" />
        </mxCell>
        <mxCell id="lUkT9VOEVtkWLfnZ2vva-13" value="Chat" style="ellipse;shape=umlEntity;whiteSpace=wrap;html=1;" parent="1" vertex="1">
          <mxGeometry x="471.25" y="90" width="87.5" height="80" as="geometry" />
        </mxCell>
        <mxCell id="lUkT9VOEVtkWLfnZ2vva-14" value="&lt;font face=&quot;Verdana&quot;&gt;2.getMessages()&lt;/font&gt;" style="html=1;verticalAlign=bottom;endArrow=block;curved=0;rounded=0;" parent="1" edge="1">
          <mxGeometry width="80" relative="1" as="geometry">
            <mxPoint x="380" y="370" as="sourcePoint" />
            <mxPoint x="500" y="370" as="targetPoint" />
            <mxPoint as="offset" />
          </mxGeometry>
        </mxCell>
        <mxCell id="lUkT9VOEVtkWLfnZ2vva-16" value="" style="rounded=0;whiteSpace=wrap;html=1;" parent="1" vertex="1">
          <mxGeometry x="510" y="360" width="10" height="40" as="geometry" />
        </mxCell>
        <mxCell id="lUkT9VOEVtkWLfnZ2vva-17" value="" style="endArrow=none;dashed=1;html=1;rounded=0;entryX=0.51;entryY=1.04;entryDx=0;entryDy=0;entryPerimeter=0;exitX=0.5;exitY=0;exitDx=0;exitDy=0;" parent="1" source="lUkT9VOEVtkWLfnZ2vva-16" target="lUkT9VOEVtkWLfnZ2vva-13" edge="1">
          <mxGeometry width="50" height="50" relative="1" as="geometry">
            <mxPoint x="500" y="300" as="sourcePoint" />
            <mxPoint x="550" y="250" as="targetPoint" />
          </mxGeometry>
        </mxCell>
        <mxCell id="lUkT9VOEVtkWLfnZ2vva-20" value="&lt;font face=&quot;Verdana&quot;&gt;currentMessages&lt;/font&gt;" style="text;html=1;strokeColor=none;fillColor=none;align=center;verticalAlign=middle;whiteSpace=wrap;rounded=0;" parent="1" vertex="1">
          <mxGeometry x="400" y="380" width="100" height="20" as="geometry" />
        </mxCell>
        <mxCell id="lUkT9VOEVtkWLfnZ2vva-21" style="edgeStyle=orthogonalEdgeStyle;rounded=0;orthogonalLoop=1;jettySize=auto;html=1;exitX=0.5;exitY=1;exitDx=0;exitDy=0;" parent="1" source="lUkT9VOEVtkWLfnZ2vva-16" target="lUkT9VOEVtkWLfnZ2vva-16" edge="1">
          <mxGeometry relative="1" as="geometry" />
        </mxCell>
        <mxCell id="lUkT9VOEVtkWLfnZ2vva-22" value="" style="endArrow=none;dashed=1;html=1;rounded=0;entryX=0.5;entryY=1;entryDx=0;entryDy=0;" parent="1" target="lUkT9VOEVtkWLfnZ2vva-16" edge="1">
          <mxGeometry width="50" height="50" relative="1" as="geometry">
            <mxPoint x="515" y="670" as="sourcePoint" />
            <mxPoint x="530" y="450" as="targetPoint" />
          </mxGeometry>
        </mxCell>
        <mxCell id="lUkT9VOEVtkWLfnZ2vva-24" value="" style="html=1;verticalAlign=bottom;labelBackgroundColor=none;endArrow=block;endFill=1;dashed=1;rounded=0;" parent="1" edge="1">
          <mxGeometry width="160" relative="1" as="geometry">
            <mxPoint x="500" y="400" as="sourcePoint" />
            <mxPoint x="380" y="400" as="targetPoint" />
          </mxGeometry>
        </mxCell>
        <mxCell id="lUkT9VOEVtkWLfnZ2vva-25" value="&lt;font face=&quot;Verdana&quot;&gt;2.1:&amp;lt;&amp;lt;create&amp;gt;&amp;gt;&lt;/font&gt;" style="html=1;verticalAlign=bottom;endArrow=block;curved=0;rounded=0;" parent="1" edge="1">
          <mxGeometry width="80" relative="1" as="geometry">
            <mxPoint x="380" y="430" as="sourcePoint" />
            <mxPoint x="640" y="430" as="targetPoint" />
          </mxGeometry>
        </mxCell>
        <mxCell id="lUkT9VOEVtkWLfnZ2vva-26" value="&lt;div&gt;ChatView&lt;/div&gt;" style="shape=umlBoundary;whiteSpace=wrap;html=1;" parent="1" vertex="1">
          <mxGeometry x="605" y="90" width="100" height="80" as="geometry" />
        </mxCell>
        <mxCell id="lUkT9VOEVtkWLfnZ2vva-28" value="" style="rounded=0;whiteSpace=wrap;html=1;" parent="1" vertex="1">
          <mxGeometry x="650" y="420" width="10" height="310" as="geometry" />
        </mxCell>
        <mxCell id="lUkT9VOEVtkWLfnZ2vva-30" value="" style="endArrow=none;dashed=1;html=1;rounded=0;exitX=0.5;exitY=0;exitDx=0;exitDy=0;entryX=0.503;entryY=0.989;entryDx=0;entryDy=0;entryPerimeter=0;" parent="1" source="lUkT9VOEVtkWLfnZ2vva-28" target="lUkT9VOEVtkWLfnZ2vva-26" edge="1">
          <mxGeometry width="50" height="50" relative="1" as="geometry">
            <mxPoint x="600" y="550" as="sourcePoint" />
            <mxPoint x="655" y="170" as="targetPoint" />
          </mxGeometry>
        </mxCell>
        <mxCell id="lUkT9VOEVtkWLfnZ2vva-33" value="&lt;font face=&quot;Verdana&quot;&gt;2.2 display(currentMessages)&lt;/font&gt;" style="html=1;verticalAlign=bottom;endArrow=block;curved=0;rounded=0;" parent="1" edge="1">
          <mxGeometry x="0.0022" width="80" relative="1" as="geometry">
            <mxPoint x="380" y="500" as="sourcePoint" />
            <mxPoint x="640" y="500" as="targetPoint" />
            <mxPoint as="offset" />
          </mxGeometry>
        </mxCell>
        <mxCell id="lUkT9VOEVtkWLfnZ2vva-37" value="3.&lt;font face=&quot;Verdana&quot;&gt;writeMessage&lt;/font&gt;()" style="html=1;verticalAlign=bottom;endArrow=block;rounded=0;strokeColor=#000000;endFill=0;" parent="1" edge="1">
          <mxGeometry x="-0.193" width="80" relative="1" as="geometry">
            <mxPoint x="70" y="550" as="sourcePoint" />
            <mxPoint x="640" y="550" as="targetPoint" />
            <mxPoint as="offset" />
          </mxGeometry>
        </mxCell>
        <mxCell id="lUkT9VOEVtkWLfnZ2vva-38" value="&lt;font face=&quot;Verdana&quot;&gt;4.submitMessage()&lt;/font&gt;" style="html=1;verticalAlign=bottom;endArrow=block;curved=0;rounded=0;endFill=0;" parent="1" edge="1">
          <mxGeometry x="-0.193" width="80" relative="1" as="geometry">
            <mxPoint x="70" y="590" as="sourcePoint" />
            <mxPoint x="640" y="590" as="targetPoint" />
            <mxPoint as="offset" />
          </mxGeometry>
        </mxCell>
        <mxCell id="lUkT9VOEVtkWLfnZ2vva-39" value="" style="endArrow=none;dashed=1;html=1;rounded=0;exitX=0.5;exitY=0;exitDx=0;exitDy=0;" parent="1" source="lUkT9VOEVtkWLfnZ2vva-5" edge="1">
          <mxGeometry width="50" height="50" relative="1" as="geometry">
            <mxPoint x="30" y="210" as="sourcePoint" />
            <mxPoint x="55" y="160" as="targetPoint" />
          </mxGeometry>
        </mxCell>
        <mxCell id="lUkT9VOEVtkWLfnZ2vva-40" value="" style="endArrow=none;dashed=1;html=1;rounded=0;exitX=0.5;exitY=0;exitDx=0;exitDy=0;entryX=0.55;entryY=1.001;entryDx=0;entryDy=0;entryPerimeter=0;" parent="1" source="lUkT9VOEVtkWLfnZ2vva-6" target="lUkT9VOEVtkWLfnZ2vva-3" edge="1">
          <mxGeometry width="50" height="50" relative="1" as="geometry">
            <mxPoint x="180" y="310" as="sourcePoint" />
            <mxPoint x="230" y="260" as="targetPoint" />
          </mxGeometry>
        </mxCell>
        <mxCell id="lUkT9VOEVtkWLfnZ2vva-41" value="" style="endArrow=none;dashed=1;html=1;rounded=0;entryX=0.5;entryY=1;entryDx=0;entryDy=0;" parent="1" target="lUkT9VOEVtkWLfnZ2vva-6" edge="1">
          <mxGeometry width="50" height="50" relative="1" as="geometry">
            <mxPoint x="225" y="840" as="sourcePoint" />
            <mxPoint x="180" y="680" as="targetPoint" />
          </mxGeometry>
        </mxCell>
        <mxCell id="lUkT9VOEVtkWLfnZ2vva-42" value="" style="endArrow=none;dashed=1;html=1;rounded=0;exitX=0.5;exitY=0;exitDx=0;exitDy=0;" parent="1" source="lUkT9VOEVtkWLfnZ2vva-12" edge="1">
          <mxGeometry width="50" height="50" relative="1" as="geometry">
            <mxPoint x="300" y="410" as="sourcePoint" />
            <mxPoint x="365" y="170" as="targetPoint" />
          </mxGeometry>
        </mxCell>
        <mxCell id="lUkT9VOEVtkWLfnZ2vva-43" value="" style="endArrow=none;dashed=1;html=1;rounded=0;entryX=0.5;entryY=1;entryDx=0;entryDy=0;" parent="1" target="lUkT9VOEVtkWLfnZ2vva-12" edge="1">
          <mxGeometry width="50" height="50" relative="1" as="geometry">
            <mxPoint x="365" y="600" as="sourcePoint" />
            <mxPoint x="410" y="640" as="targetPoint" />
          </mxGeometry>
        </mxCell>
        <mxCell id="lUkT9VOEVtkWLfnZ2vva-46" value="" style="rounded=0;whiteSpace=wrap;html=1;" parent="1" vertex="1">
          <mxGeometry x="360" y="600" width="10" height="130" as="geometry" />
        </mxCell>
        <mxCell id="lUkT9VOEVtkWLfnZ2vva-50" value="&lt;font face=&quot;Verdana&quot;&gt;4.1 [Message != null]:sendMessage(Message)&lt;br&gt;&lt;/font&gt;" style="html=1;verticalAlign=bottom;endArrow=block;curved=0;rounded=0;" parent="1" edge="1">
          <mxGeometry x="0.0027" width="80" relative="1" as="geometry">
            <mxPoint x="640" y="640" as="sourcePoint" />
            <mxPoint x="380" y="640" as="targetPoint" />
            <mxPoint as="offset" />
          </mxGeometry>
        </mxCell>
        <mxCell id="lUkT9VOEVtkWLfnZ2vva-51" value="" style="rounded=0;whiteSpace=wrap;html=1;" parent="1" vertex="1">
          <mxGeometry x="510" y="650" width="10" height="50" as="geometry" />
        </mxCell>
        <mxCell id="lUkT9VOEVtkWLfnZ2vva-52" value="&lt;font style=&quot;font-size: 8px;&quot; face=&quot;Verdana&quot;&gt;4.2 addMessage(Message)&lt;br&gt;&lt;/font&gt;" style="html=1;verticalAlign=bottom;endArrow=block;curved=0;rounded=0;" parent="1" edge="1">
          <mxGeometry width="80" relative="1" as="geometry">
            <mxPoint x="380" y="670" as="sourcePoint" />
            <mxPoint x="500" y="670" as="targetPoint" />
            <mxPoint as="offset" />
          </mxGeometry>
        </mxCell>
        <mxCell id="lUkT9VOEVtkWLfnZ2vva-54" value="&lt;font style=&quot;font-size: 8px;&quot;&gt;currentMessages&lt;/font&gt;" style="html=1;verticalAlign=bottom;endArrow=block;curved=0;rounded=0;dashed=1;" parent="1" edge="1">
          <mxGeometry width="80" relative="1" as="geometry">
            <mxPoint x="500" y="690" as="sourcePoint" />
            <mxPoint x="380" y="690" as="targetPoint" />
            <mxPoint as="offset" />
          </mxGeometry>
        </mxCell>
        <mxCell id="lUkT9VOEVtkWLfnZ2vva-56" value="&lt;font face=&quot;Verdana&quot;&gt;5.display(currentMessages)&lt;/font&gt;" style="html=1;verticalAlign=bottom;endArrow=block;curved=0;rounded=0;" parent="1" edge="1">
          <mxGeometry width="80" relative="1" as="geometry">
            <mxPoint x="380" y="720" as="sourcePoint" />
            <mxPoint x="640" y="720" as="targetPoint" />
            <mxPoint as="offset" />
          </mxGeometry>
        </mxCell>
        <mxCell id="lUkT9VOEVtkWLfnZ2vva-57" value="" style="endArrow=none;dashed=1;html=1;rounded=0;entryX=0.5;entryY=1;entryDx=0;entryDy=0;" parent="1" target="lUkT9VOEVtkWLfnZ2vva-5" edge="1">
          <mxGeometry width="50" height="50" relative="1" as="geometry">
            <mxPoint x="55" y="840" as="sourcePoint" />
            <mxPoint x="80" y="790" as="targetPoint" />
          </mxGeometry>
        </mxCell>
        <mxCell id="lUkT9VOEVtkWLfnZ2vva-58" value="" style="endArrow=none;dashed=1;html=1;rounded=0;entryX=0.5;entryY=1;entryDx=0;entryDy=0;" parent="1" target="lUkT9VOEVtkWLfnZ2vva-28" edge="1">
          <mxGeometry width="50" height="50" relative="1" as="geometry">
            <mxPoint x="655" y="840" as="sourcePoint" />
            <mxPoint x="670" y="790" as="targetPoint" />
          </mxGeometry>
        </mxCell>
        <mxCell id="lUkT9VOEVtkWLfnZ2vva-59" value="" style="endArrow=none;dashed=1;html=1;rounded=0;entryX=0.5;entryY=1;entryDx=0;entryDy=0;" parent="1" target="lUkT9VOEVtkWLfnZ2vva-46" edge="1">
          <mxGeometry width="50" height="50" relative="1" as="geometry">
            <mxPoint x="365" y="840" as="sourcePoint" />
            <mxPoint x="360" y="840" as="targetPoint" />
          </mxGeometry>
        </mxCell>
        <mxCell id="lUkT9VOEVtkWLfnZ2vva-60" value="" style="endArrow=none;dashed=1;html=1;rounded=0;entryX=0.5;entryY=1;entryDx=0;entryDy=0;" parent="1" target="lUkT9VOEVtkWLfnZ2vva-51" edge="1">
          <mxGeometry width="50" height="50" relative="1" as="geometry">
            <mxPoint x="515" y="840" as="sourcePoint" />
            <mxPoint x="620" y="880" as="targetPoint" />
          </mxGeometry>
        </mxCell>
      </root>
    </mxGraphModel>
  </diagram>
</mxfile>
